<mxfile host="app.diagrams.net" modified="2022-10-07T09:40:02.635Z" agent="5.0 (Windows NT 10.0; Win64; x64) AppleWebKit/537.36 (KHTML, like Gecko) Chrome/106.0.0.0 Safari/537.36 Edg/106.0.1370.34" etag="eQYaofYjZyuUZTe6w84k" version="20.4.0" type="github">
  <diagram id="C5RBs43oDa-KdzZeNtuy" name="Page-1">
    <mxGraphModel dx="997" dy="451" grid="1" gridSize="10" guides="1" tooltips="1" connect="1" arrows="1" fold="1" page="1" pageScale="1" pageWidth="827" pageHeight="1169" math="0" shadow="0">
      <root>
        <mxCell id="WIyWlLk6GJQsqaUBKTNV-0" />
        <mxCell id="WIyWlLk6GJQsqaUBKTNV-1" parent="WIyWlLk6GJQsqaUBKTNV-0" />
        <mxCell id="WIyWlLk6GJQsqaUBKTNV-2" value="" style="rounded=0;html=1;jettySize=auto;orthogonalLoop=1;fontSize=14;endArrow=block;endFill=0;endSize=8;strokeWidth=1;shadow=0;labelBackgroundColor=none;edgeStyle=orthogonalEdgeStyle;" parent="WIyWlLk6GJQsqaUBKTNV-1" source="WIyWlLk6GJQsqaUBKTNV-3" target="WIyWlLk6GJQsqaUBKTNV-6" edge="1">
          <mxGeometry relative="1" as="geometry" />
        </mxCell>
        <mxCell id="WIyWlLk6GJQsqaUBKTNV-3" value="open website" style="rounded=1;whiteSpace=wrap;html=1;fontSize=14;glass=0;strokeWidth=1;shadow=0;fillColor=#dae8fc;strokeColor=#6c8ebf;" parent="WIyWlLk6GJQsqaUBKTNV-1" vertex="1">
          <mxGeometry x="161" y="319" width="120" height="40" as="geometry" />
        </mxCell>
        <mxCell id="3knuJFRUpPFMQbMEkiv0-12" style="edgeStyle=orthogonalEdgeStyle;rounded=0;orthogonalLoop=1;jettySize=auto;html=1;exitX=0.5;exitY=1;exitDx=0;exitDy=0;entryX=0.5;entryY=0;entryDx=0;entryDy=0;fontSize=14;" edge="1" parent="WIyWlLk6GJQsqaUBKTNV-1" source="WIyWlLk6GJQsqaUBKTNV-6" target="3knuJFRUpPFMQbMEkiv0-11">
          <mxGeometry relative="1" as="geometry" />
        </mxCell>
        <mxCell id="3knuJFRUpPFMQbMEkiv0-24" style="edgeStyle=orthogonalEdgeStyle;rounded=0;orthogonalLoop=1;jettySize=auto;html=1;exitX=1;exitY=0.5;exitDx=0;exitDy=0;entryX=0;entryY=0.5;entryDx=0;entryDy=0;fontColor=#C91306;fontSize=14;" edge="1" parent="WIyWlLk6GJQsqaUBKTNV-1" source="WIyWlLk6GJQsqaUBKTNV-6" target="WIyWlLk6GJQsqaUBKTNV-7">
          <mxGeometry relative="1" as="geometry" />
        </mxCell>
        <mxCell id="3knuJFRUpPFMQbMEkiv0-25" value="No" style="edgeLabel;html=1;align=center;verticalAlign=middle;resizable=0;points=[];fontColor=#C91306;fontSize=14;" vertex="1" connectable="0" parent="3knuJFRUpPFMQbMEkiv0-24">
          <mxGeometry x="0.2093" relative="1" as="geometry">
            <mxPoint x="-19" as="offset" />
          </mxGeometry>
        </mxCell>
        <mxCell id="WIyWlLk6GJQsqaUBKTNV-6" value="is a user" style="rhombus;whiteSpace=wrap;html=1;shadow=0;fontFamily=Helvetica;fontSize=14;align=center;strokeWidth=1;spacing=6;spacingTop=-4;fillColor=#d5e8d4;strokeColor=#82b366;" parent="WIyWlLk6GJQsqaUBKTNV-1" vertex="1">
          <mxGeometry x="171" y="409" width="100" height="80" as="geometry" />
        </mxCell>
        <mxCell id="3knuJFRUpPFMQbMEkiv0-6" style="edgeStyle=orthogonalEdgeStyle;rounded=0;orthogonalLoop=1;jettySize=auto;html=1;exitX=1;exitY=0.5;exitDx=0;exitDy=0;entryX=0;entryY=0.5;entryDx=0;entryDy=0;fontSize=14;" edge="1" parent="WIyWlLk6GJQsqaUBKTNV-1" source="WIyWlLk6GJQsqaUBKTNV-7" target="3knuJFRUpPFMQbMEkiv0-1">
          <mxGeometry relative="1" as="geometry" />
        </mxCell>
        <mxCell id="WIyWlLk6GJQsqaUBKTNV-7" value="signup" style="rounded=1;whiteSpace=wrap;html=1;fontSize=14;glass=0;strokeWidth=1;shadow=0;fillColor=#dae8fc;strokeColor=#6c8ebf;" parent="WIyWlLk6GJQsqaUBKTNV-1" vertex="1">
          <mxGeometry x="370" y="429" width="120" height="40" as="geometry" />
        </mxCell>
        <mxCell id="3knuJFRUpPFMQbMEkiv0-22" style="edgeStyle=orthogonalEdgeStyle;rounded=0;orthogonalLoop=1;jettySize=auto;html=1;exitX=0.5;exitY=1;exitDx=0;exitDy=0;entryX=0.5;entryY=0;entryDx=0;entryDy=0;fontSize=14;" edge="1" parent="WIyWlLk6GJQsqaUBKTNV-1" source="3knuJFRUpPFMQbMEkiv0-0" target="WIyWlLk6GJQsqaUBKTNV-3">
          <mxGeometry relative="1" as="geometry" />
        </mxCell>
        <mxCell id="3knuJFRUpPFMQbMEkiv0-0" value="start" style="ellipse;whiteSpace=wrap;html=1;aspect=fixed;labelBackgroundColor=none;fillColor=#C9574E;fontSize=14;fontColor=#FCFCFC;" vertex="1" parent="WIyWlLk6GJQsqaUBKTNV-1">
          <mxGeometry x="196" y="240" width="50" height="50" as="geometry" />
        </mxCell>
        <mxCell id="3knuJFRUpPFMQbMEkiv0-26" style="edgeStyle=orthogonalEdgeStyle;rounded=0;orthogonalLoop=1;jettySize=auto;html=1;exitX=0.5;exitY=1;exitDx=0;exitDy=0;entryX=0.5;entryY=0;entryDx=0;entryDy=0;fontSize=14;fontColor=#2FD415;" edge="1" parent="WIyWlLk6GJQsqaUBKTNV-1" source="3knuJFRUpPFMQbMEkiv0-1" target="3knuJFRUpPFMQbMEkiv0-2">
          <mxGeometry relative="1" as="geometry" />
        </mxCell>
        <mxCell id="3knuJFRUpPFMQbMEkiv0-1" value="fill form" style="rounded=1;whiteSpace=wrap;html=1;fontSize=14;glass=0;strokeWidth=1;shadow=0;fillColor=#dae8fc;strokeColor=#6c8ebf;" vertex="1" parent="WIyWlLk6GJQsqaUBKTNV-1">
          <mxGeometry x="560" y="429" width="120" height="40" as="geometry" />
        </mxCell>
        <mxCell id="3knuJFRUpPFMQbMEkiv0-7" style="edgeStyle=orthogonalEdgeStyle;rounded=0;orthogonalLoop=1;jettySize=auto;html=1;exitX=0;exitY=0.5;exitDx=0;exitDy=0;fontSize=14;" edge="1" parent="WIyWlLk6GJQsqaUBKTNV-1" source="3knuJFRUpPFMQbMEkiv0-2">
          <mxGeometry relative="1" as="geometry">
            <mxPoint x="281" y="560" as="targetPoint" />
          </mxGeometry>
        </mxCell>
        <mxCell id="3knuJFRUpPFMQbMEkiv0-2" value="submit" style="rounded=1;whiteSpace=wrap;html=1;fontSize=14;glass=0;strokeWidth=1;shadow=0;fillColor=#dae8fc;strokeColor=#6c8ebf;" vertex="1" parent="WIyWlLk6GJQsqaUBKTNV-1">
          <mxGeometry x="560" y="540" width="120" height="40" as="geometry" />
        </mxCell>
        <mxCell id="3knuJFRUpPFMQbMEkiv0-16" style="edgeStyle=orthogonalEdgeStyle;rounded=0;orthogonalLoop=1;jettySize=auto;html=1;exitX=0.5;exitY=1;exitDx=0;exitDy=0;entryX=0.5;entryY=0;entryDx=0;entryDy=0;fontSize=14;" edge="1" parent="WIyWlLk6GJQsqaUBKTNV-1" source="3knuJFRUpPFMQbMEkiv0-9" target="3knuJFRUpPFMQbMEkiv0-15">
          <mxGeometry relative="1" as="geometry" />
        </mxCell>
        <mxCell id="3knuJFRUpPFMQbMEkiv0-9" value="Enter User credentials" style="rounded=1;whiteSpace=wrap;html=1;fontSize=14;glass=0;strokeWidth=1;shadow=0;fillColor=#dae8fc;strokeColor=#6c8ebf;" vertex="1" parent="WIyWlLk6GJQsqaUBKTNV-1">
          <mxGeometry x="161" y="640" width="120" height="40" as="geometry" />
        </mxCell>
        <mxCell id="3knuJFRUpPFMQbMEkiv0-13" style="edgeStyle=orthogonalEdgeStyle;rounded=0;orthogonalLoop=1;jettySize=auto;html=1;exitX=0.5;exitY=1;exitDx=0;exitDy=0;entryX=0.5;entryY=0;entryDx=0;entryDy=0;fontSize=14;" edge="1" parent="WIyWlLk6GJQsqaUBKTNV-1" source="3knuJFRUpPFMQbMEkiv0-11" target="3knuJFRUpPFMQbMEkiv0-9">
          <mxGeometry relative="1" as="geometry" />
        </mxCell>
        <mxCell id="3knuJFRUpPFMQbMEkiv0-11" value="Login" style="rounded=1;whiteSpace=wrap;html=1;fontSize=14;glass=0;strokeWidth=1;shadow=0;fillColor=#dae8fc;strokeColor=#6c8ebf;" vertex="1" parent="WIyWlLk6GJQsqaUBKTNV-1">
          <mxGeometry x="161" y="540" width="120" height="40" as="geometry" />
        </mxCell>
        <mxCell id="3knuJFRUpPFMQbMEkiv0-17" value="No" style="edgeStyle=orthogonalEdgeStyle;rounded=0;orthogonalLoop=1;jettySize=auto;html=1;exitX=0;exitY=0.5;exitDx=0;exitDy=0;entryX=0;entryY=0.5;entryDx=0;entryDy=0;fontColor=#C91306;fontSize=14;" edge="1" parent="WIyWlLk6GJQsqaUBKTNV-1" source="3knuJFRUpPFMQbMEkiv0-15" target="3knuJFRUpPFMQbMEkiv0-11">
          <mxGeometry relative="1" as="geometry">
            <Array as="points">
              <mxPoint x="120" y="780" />
              <mxPoint x="120" y="560" />
            </Array>
          </mxGeometry>
        </mxCell>
        <mxCell id="3knuJFRUpPFMQbMEkiv0-27" value="Yes" style="edgeStyle=orthogonalEdgeStyle;rounded=0;orthogonalLoop=1;jettySize=auto;html=1;exitX=0.5;exitY=1;exitDx=0;exitDy=0;fontSize=14;fontColor=#14FA87;" edge="1" parent="WIyWlLk6GJQsqaUBKTNV-1" source="3knuJFRUpPFMQbMEkiv0-15" target="3knuJFRUpPFMQbMEkiv0-18">
          <mxGeometry relative="1" as="geometry" />
        </mxCell>
        <mxCell id="3knuJFRUpPFMQbMEkiv0-15" value="credentials &lt;br style=&quot;font-size: 14px;&quot;&gt;valid" style="rhombus;whiteSpace=wrap;html=1;shadow=0;fontFamily=Helvetica;fontSize=14;align=center;strokeWidth=1;spacing=6;spacingTop=-4;fillColor=#d5e8d4;strokeColor=#82b366;labelPadding=2;" vertex="1" parent="WIyWlLk6GJQsqaUBKTNV-1">
          <mxGeometry x="171" y="740" width="100" height="80" as="geometry" />
        </mxCell>
        <mxCell id="3knuJFRUpPFMQbMEkiv0-21" style="edgeStyle=orthogonalEdgeStyle;rounded=0;orthogonalLoop=1;jettySize=auto;html=1;exitX=0.5;exitY=1;exitDx=0;exitDy=0;entryX=0.5;entryY=0;entryDx=0;entryDy=0;fontSize=14;" edge="1" parent="WIyWlLk6GJQsqaUBKTNV-1" source="3knuJFRUpPFMQbMEkiv0-18" target="3knuJFRUpPFMQbMEkiv0-20">
          <mxGeometry relative="1" as="geometry" />
        </mxCell>
        <mxCell id="3knuJFRUpPFMQbMEkiv0-18" value="Login successful" style="rounded=1;whiteSpace=wrap;html=1;fontSize=14;glass=0;strokeWidth=1;shadow=0;fillColor=#dae8fc;strokeColor=#6c8ebf;" vertex="1" parent="WIyWlLk6GJQsqaUBKTNV-1">
          <mxGeometry x="161" y="880" width="120" height="40" as="geometry" />
        </mxCell>
        <mxCell id="3knuJFRUpPFMQbMEkiv0-20" value="End" style="ellipse;whiteSpace=wrap;html=1;aspect=fixed;fillColor=#C9574E;fontSize=14;fontColor=#FAFAFA;" vertex="1" parent="WIyWlLk6GJQsqaUBKTNV-1">
          <mxGeometry x="196" y="970" width="50" height="50" as="geometry" />
        </mxCell>
      </root>
    </mxGraphModel>
  </diagram>
</mxfile>
